<svg id="Layer_1" data-name="Layer 1" xmlns="http://www.w3.org/2000/svg" viewBox="0 0 553.33333 480"><defs><style>.cls-1{fill:#fff;}</style></defs><title>Artboard 2</title><path class="cls-1" d="M169.38808,162.00934c0-40.98633-32.38476-65.78125-69.32324-65.78125-33.90332,0-72.35938,22.51758-72.35938,71.34765v5.81934H77.0414v-5.81934c0-14.42187,9.36133-22.26464,22.26465-22.26464,11.89063,0,18.97559,6.831,18.97559,16.69824,0,10.373-7.085,17.458-23.27735,32.63769l-69.8291,64.51661v38.2041H168.12343V247.0191h-56.167l16.69824-15.17968C145.1,216.15289,169.38808,195.4068,169.38808,162.00934Z"/><path class="cls-1" d="M528.1581,265.30322c0-52.626-28.84277-102.46777-83.74512-102.46777s-82.98632,49.8418-82.98632,102.46777c0,52.87793,28.084,102.4668,82.98632,102.4668S528.1581,318.18115,528.1581,265.30322Zm-116.38281,0c0-33.39746,13.915-53.38476,32.63769-53.38476s33.14356,19.9873,33.14356,53.38476c0,33.39649-14.4209,53.63672-33.14356,53.63672S411.77529,298.69971,411.77529,265.30322Z"/><polygon class="cls-1" points="252.455 429.914 234.532 390.252 230.881 390.252 250.74 433.4 254.225 433.4 274.028 390.252 270.433 390.252 252.455 429.914"/><rect class="cls-1" x="296.48543" y="390.25201" width="3.26385" height="43.14758"/><path class="cls-1" d="M341.29079,410.16656c-7.02484-2.213-12.88855-4.149-12.88855-9.68048,0-4.64685,4.20423-8.021,11.89295-8.021,8.02105,0,12.94433,3.54028,12.94433,8.35266v.27649h3.20868v-.4978c0-6.47187-6.63861-11.17389-16.153-11.17389-9.34827,0-15.32294,4.53589-15.32294,11.28424,0,7.80029,8.35327,10.45538,15.37811,12.61267,7.30194,2.21246,13.387,4.20422,13.387,9.84668,0,4.64624-4.31458,8.021-12.33558,8.021-8.35327,0-13.5531-3.54034-13.5531-8.35327v-.22131h-3.20807v.44263c0,6.52764,6.91449,11.17443,16.76117,11.17443,9.56958,0,15.82074-4.42547,15.82074-11.22961C357.22249,414.92377,348.20589,412.26813,341.29079,410.16656Z"/><rect class="cls-1" x="382.00289" y="390.25201" width="3.26379" height="43.14758"/><path class="cls-1" d="M432.50637,389.42255a22.4036,22.4036,0,1,0,22.45874,22.40356A22.47515,22.47515,0,0,0,432.50637,389.42255Zm0,41.54327a19.14,19.14,0,1,1,19.13977-19.13971A19.194,19.194,0,0,1,432.50637,430.96582Z"/><polygon class="cls-1" points="512.549 427.812 482.678 390.252 479.746 390.252 479.746 433.4 483.009 433.4 483.009 395.894 512.881 433.4 515.813 433.4 515.813 390.252 512.549 390.252 512.549 427.812"/><path class="cls-1" d="M344.2286,363.9751V313.62646h-56.167l16.69825-15.17968c16.44531-15.68653,40.7334-36.43262,40.7334-69.83008,0-36.2652-25.36194-59.82752-56.791-64.77966L335.12624,11.66669H324.64058l-27.4143,89.86A78.51326,78.51326,0,0,0,268.308,96.22809c-54.90234,0-82.98632,49.8418-82.98632,102.46777,0,42.09564,17.81713,82.07843,52.77673,96.64319L185.32168,468.33331h10.48523L227.64437,363.9751ZM275.41121,211.91846c11.89063,0,18.97559,6.831,18.97559,16.69824,0,10.373-7.085,17.458-23.27734,32.63769l-16.887,15.60193,19.79908-64.89825C274.48092,211.93671,274.94185,211.91846,275.41121,211.91846Zm-39.7409-13.2226c0-33.39746,13.915-53.38476,32.63769-53.38476a25.16939,25.16939,0,0,1,14.22089,4.39154l-29.6637,97.23315C242.43239,238.83929,235.67031,221.9682,235.67031,198.69586Z"/></svg>