<svg id="Layer_1" data-name="Layer 1" xmlns="http://www.w3.org/2000/svg" viewBox="0 0 595.33333 218"><defs><style>.cls-1{fill:#14cdeb;}.cls-2{fill:#566b82;}</style></defs><title>Artboard 1</title><path class="cls-1" d="M545.36363,36.11013a3.20382,3.20382,0,0,1,3.20022,3.2002V90.00166a1.29152,1.29152,0,0,1-.85248,1.26674,17.91325,17.91325,0,0,0,0,34.48426,1.2915,1.2915,0,0,1,.85248,1.26673v50.69133a3.20383,3.20383,0,0,1-3.20022,3.20021H127.3528a14.5834,14.5834,0,0,0-9.96389-9.96389v-6.46813a6.49326,6.49326,0,0,0,0-10.24037v-10.099a6.49328,6.49328,0,0,0,0-10.24039V123.80032a6.49327,6.49327,0,0,0,0-10.24038V103.461a6.49326,6.49326,0,0,0,0-10.24037v-10.099a6.49327,6.49327,0,0,0,0-10.24038V62.78245a6.49326,6.49326,0,0,0,0-10.24037V46.074a14.58345,14.58345,0,0,0,9.96389-9.96389H545.36363m0-4H123.91284a10.52394,10.52394,0,0,1-10.52393,10.52393v12.5282a2.5,2.5,0,1,1,0,5V75.50153a2.5,2.5,0,1,1,0,5V95.84087a2.5,2.5,0,1,1,0,5v15.33926a2.5,2.5,0,0,1,0,5v15.33926a2.5,2.5,0,1,1,0,5v15.33934a2.5,2.5,0,0,1,0,5V174.387a10.52394,10.52394,0,0,1,10.52393,10.52394H545.36363a7.20016,7.20016,0,0,0,7.20022-7.20021V127.01939a5.28149,5.28149,0,0,0-3.77041-5.1176,13.91325,13.91325,0,0,1,0-26.78253,5.28147,5.28147,0,0,0,3.77041-5.1176V39.31033a7.20015,7.20015,0,0,0-7.20022-7.2002Z"/><path class="cls-1" d="M96.9333,36.11012a14.5834,14.5834,0,0,0,9.96387,9.96386v6.43281a6.32812,6.32812,0,0,0,0,10.31088V72.84608a6.32813,6.32813,0,0,0,0,10.31089V93.18538a6.32812,6.32812,0,0,0,0,10.31088v10.02841a6.32813,6.32813,0,0,0,0,10.31089V133.864a6.32812,6.32812,0,0,0,0,10.31088v10.02844a6.32813,6.32813,0,0,0,0,10.31089v6.43289a14.58342,14.58342,0,0,0-9.96387,9.96386H57.487c-.17671,0-.30529-.1752-.3543-.34869a23.9795,23.9795,0,0,0-10.23549-13.69875V50.1574A23.98058,23.98058,0,0,0,57.13266,36.45879c.049-.17356.17756-.34867.35421-.34867H96.9333m3.44-4H57.48687a4.39416,4.39416,0,0,0-4.20362,3.2615,19.99242,19.99242,0,0,1-10.38608,12.4525V169.19685a19.99142,19.99142,0,0,1,10.38608,12.45259,4.39433,4.39433,0,0,0,4.20371,3.26149h42.8863A10.5239,10.5239,0,0,1,110.89717,174.387V161.85873a2.50472,2.50472,0,1,1,0-5V141.51941a2.50472,2.50472,0,1,1,0-5v-15.3393a2.50472,2.50472,0,1,1,0-5V100.84082a2.50472,2.50472,0,1,1,0-5V80.50153a2.50472,2.50472,0,1,1,0-5V60.16223a2.50472,2.50472,0,1,1,0-5V42.634a10.52389,10.52389,0,0,1-10.52391-10.52391Z"/><path class="cls-2" d="M165.43278,78.25488a7.69509,7.69509,0,1,1-.01953-6.915l-3.457,1.5586a4.02687,4.02687,0,1,0,0,3.83691Z"/><path class="cls-2" d="M176.39567,67.12305a7.69571,7.69571,0,1,1-7.86523,7.69336A7.797,7.797,0,0,1,176.39567,67.12305Zm0,11.7207a4.02735,4.02735,0,1,0-4.02734-4.02734A3.98149,3.98149,0,0,0,176.39567,78.84375Z"/><path class="cls-2" d="M201.72184,67.4082v8.33887c0,3.81934-2.39355,6.76367-6.82031,6.76367-4.44531,0-6.80078-2.94433-6.80078-6.76367V67.4082h3.7998v8.11133c0,2.14649,1.02539,3.32422,3.001,3.32422,1.99512,0,3.04-1.17773,3.04-3.32422V67.4082Z"/><path class="cls-2" d="M206.26383,67.4082H212.799a5.72818,5.72818,0,1,1,0,11.45508h-2.73535v3.36231h-3.79981Zm3.79981,3.457v4.54H212.59a2.27168,2.27168,0,0,0,0-4.54Z"/><path class="cls-2" d="M229.70915,67.12305a7.69571,7.69571,0,1,1-7.86524,7.69336A7.797,7.797,0,0,1,229.70915,67.12305Zm0,11.7207a4.02735,4.02735,0,1,0-4.02735-4.02734A3.98149,3.98149,0,0,0,229.70915,78.84375Z"/><path class="cls-2" d="M241.62223,82.22559V67.4082h3.2295l6.61132,8.28223V67.4082h3.78028V82.22559h-3.21L245.422,73.96191v8.26368Z"/><path class="cls-2" d="M281.99528,78.25488a7.69509,7.69509,0,1,1-.01953-6.915l-3.457,1.5586a4.02687,4.02687,0,1,0,0,3.83691Z"/><path class="cls-2" d="M292.95817,67.12305a7.69571,7.69571,0,1,1-7.86523,7.69336A7.79661,7.79661,0,0,1,292.95817,67.12305Zm0,11.7207a4.02735,4.02735,0,1,0-4.02734-4.02734A3.98149,3.98149,0,0,0,292.95817,78.84375Z"/><path class="cls-2" d="M304.87174,67.4082h6.877c4.63672,0,7.00976,3.38086,7.00976,7.40821,0,4.04687-2.373,7.40918-7.00976,7.40918h-6.877Zm3.80079,3.68457v7.4668h2.791c2.26172,0,3.459-1.52051,3.459-3.74316s-1.19727-3.72364-3.459-3.72364Z"/><path class="cls-2" d="M322.88346,67.4082h11.38086v3.68457h-7.58008V73.2207h6.23047v3.43848h-6.23047v1.90039h7.58008v3.666H322.88346Z"/><path class="cls-2" d="M340.76237,71.416a2.39355,2.39355,0,1,1-2.39453,2.39355A2.40743,2.40743,0,0,1,340.76237,71.416Zm0,6.3457a2.39356,2.39356,0,1,1-2.39453,2.39355A2.40679,2.40679,0,0,1,340.76237,77.76172Z"/><path class="cls-1" d="M177.52165,141.34277H151.7443v-6.88965l12.5918-11.63378c2.91992-2.73731,4.19727-4.01465,4.19727-5.88575,0-1.77929-1.27735-3.01074-3.42188-3.01074a3.73619,3.73619,0,0,0-4.01465,4.01465v1.0498h-8.89648v-1.0498c0-8.80469,6.93457-12.86523,13.04883-12.86523,6.66113,0,12.501,4.4707,12.501,11.86132,0,6.02246-4.37988,9.76368-7.3457,12.59278l-3.01172,2.7373h10.12891Z"/><path class="cls-1" d="M201.97282,105.07227c9.90039,0,15.10156,8.9873,15.10156,18.47753,0,9.53516-5.20117,18.47754-15.10156,18.47754S187.008,133.085,187.008,123.5498C187.008,114.05957,192.07243,105.07227,201.97282,105.07227Zm0,28.14941c3.376,0,5.97656-3.64941,5.97656-9.67188s-2.60058-9.627-5.97656-9.627-5.88574,3.60449-5.88574,9.627S198.59684,133.22168,201.97282,133.22168Z"/><path class="cls-1" d="M251.83708,141.34277H226.05973v-6.88965l12.5918-11.63378c2.91992-2.73731,4.19727-4.01465,4.19727-5.88575,0-1.77929-1.27735-3.01074-3.42188-3.01074a3.73619,3.73619,0,0,0-4.01465,4.01465v1.0498h-8.89648v-1.0498c0-8.80469,6.93457-12.86523,13.04883-12.86523,6.66113,0,12.501,4.4707,12.501,11.86132,0,6.02246-4.37988,9.76368-7.3457,12.59278l-3.01172,2.7373h10.12891Z"/><path class="cls-1" d="M276.28825,105.07227c9.90039,0,15.10156,8.9873,15.10156,18.47753,0,9.53516-5.20117,18.47754-15.10156,18.47754S261.3234,133.085,261.3234,123.5498C261.3234,114.05957,266.38786,105.07227,276.28825,105.07227Zm0,28.14941c3.376,0,5.97656-3.64941,5.97656-9.67188s-2.60058-9.627-5.97656-9.627-5.88574,3.60449-5.88574,9.627S272.91227,133.22168,276.28825,133.22168Z"/><path class="cls-1" d="M311.36979,141.34277l-14.3706-35.58691H306.946l8.94141,23.90723,8.98828-23.90723H334.821l-14.416,35.58691Z"/><path class="cls-1" d="M352.61,105.75586v35.58691h-9.125V105.75586Z"/><path class="cls-1" d="M371.49674,130.667v.22754c0,1.36914,1.8711,3.23926,6.02344,3.23926,3.42188,0,4.51563-1.14063,4.51563-2.18945,0-1.50586-1.7793-2.418-6.06836-3.87793-5.65625-1.8711-13.09375-4.6084-13.09375-11.95313,0-6.79883,5.79492-11.041,13.916-11.041,8.30274,0,14.55469,4.4248,14.55469,11.49707v.502h-8.89648V116.752c0-1.73437-1.78125-3.78711-5.47657-3.78711-3.10156,0-4.334,1.23145-4.334,2.418,0,1.41407,1.64258,2.14453,5.88672,3.60449,4.92578,1.7334,13.32226,4.65332,13.32226,12.45508,0,6.93457-6.02343,10.585-14.14453,10.585-8.53125,0-15.10156-3.96972-15.10156-10.95019V130.667Z"/><path class="cls-1" d="M410.95768,105.75586v35.58691h-9.125V105.75586Z"/><path class="cls-1" d="M439.56315,105.07227a18.482,18.482,0,1,1,0,36.95507c-10.26562,0-18.88867-8.30371-18.88867-18.47754C420.67448,113.375,429.29753,105.07227,439.56315,105.07227Zm0,28.14941a9.67237,9.67237,0,1,0-9.67187-9.67188A9.56188,9.56188,0,0,0,439.56315,133.22168Z"/><path class="cls-1" d="M468.16471,141.34277V105.75586h7.75586l15.877,19.89258V105.75586h9.07812v35.58691h-7.709l-15.877-19.84668v19.84668Z"/></svg>